<svg xmlns="http://www.w3.org/2000/svg" viewBox="0 0 283.46 354.325" x="0px" y="0px">
    <path d="M69.83,144c-4.37,5.63-6.69,11.71-6.69,17.89,0,11.22,7.6,22.1,21.39,30.62s31.82,13.53,51.34,14.37V221.2a6,6,0,0,0,12,0V206.84c19.41-.88,37.36-5.89,51.07-14.36s21.39-19.4,21.39-30.62c0-6.18-2.32-12.25-6.69-17.89a41.61,41.61,0,0,0,5.15-7.87,32.67,32.67,0,0,0,3.53-14.6c0-26.23-32.81-47.7-74.45-49.64V62.26a6,6,0,0,0-12,0v9.58C94.1,73.7,61.15,95.22,61.15,121.5a32.67,32.67,0,0,0,3.53,14.6A41.6,41.6,0,0,0,69.83,144Zm3.32-22.48c0-5.21,2.33-15.38,17.91-25,12-7.41,27.73-11.82,44.81-12.64V96.7a6,6,0,0,0,12,0V83.86c17,.86,32.61,5.26,44.54,12.63,15.58,9.63,17.91,19.8,17.91,25s-2.33,15.38-17.91,25c-13.35,8.25-31.35,12.79-50.67,12.79a112.5,112.5,0,0,1-28.68-3.6l12.48-25.59a10.3,10.3,0,0,0-4.33-13.47l-.14-.08a10.33,10.33,0,0,0-10.72.16L79.21,136.56C74.15,130.44,73.15,124.91,73.15,121.5Z" fill="white"/>
</svg>