<svg xmlns="http://www.w3.org/2000/svg" viewBox="0 0 283.46 354.325" x="0px" y="0px"><g data-name="Ebene 2">
    <path d="M87.79,88.27c-10.94,7.77-17.58,17.92-17.58,29v71.07c0,24.45,32.07,44.27,71.63,44.27s71.63-19.82,71.63-44.27V117.3c0-11.16-6.69-21.34-17.71-29.12l33.11-33.11a6,6,0,0,0-8.48-8.49L185,82C173,76.36,158.05,73,141.84,73s-31.28,3.36-43.31,9L63.08,46.58a6,6,0,0,0-8.48,8.49ZM160,115.42a6,6,0,0,0,8.48,0l18.61-18.61c12.45,8,14.34,16.25,14.34,20.49s-2,12.87-15.29,21.09c-11.49,7.1-27.65,11.17-44.34,11.17S109,145.49,97.5,138.39c-13.3-8.22-15.29-16.75-15.29-21.09s1.88-12.4,14.21-20.41l18.52,18.52a6,6,0,1,0,8.48-8.49L107.67,91.18a98.08,98.08,0,0,1,68.18-.06L160,106.93A6,6,0,0,0,160,115.42Z" fill="white"/></g>
</svg>